<svg xmlns="http://www.w3.org/2000/svg" width="137.393" height="137.394" viewBox="0 0 137.39293 137.39399"><defs><clipPath><path d="M0 841.89h595.28V0H0v841.89z"/></clipPath></defs><g><path d="M68.69 116.873c-26.56 0-48.17-21.61-48.17-48.17 0-26.565 21.61-48.176 48.17-48.176 26.568 0 48.175 21.61 48.175 48.175 0 26.56-21.607 48.17-48.175 48.17" fill="#f40e1b"/></g><g><path d="M68.69 128.073c-1.713 0-3.108-1.4-3.108-3.11 0-1.717 1.394-3.114 3.107-3.114 29.3 0 53.133-23.835 53.133-53.133 0-29.294-23.834-53.124-53.133-53.124-29.294 0-53.13 23.83-53.13 53.124 0 13.62 5.17 26.587 14.555 36.498 1.18 1.246 1.125 3.215-.122 4.397-1.248 1.186-3.213 1.12-4.398-.12C15.115 98.42 9.34 83.936 9.34 68.717 9.34 35.994 35.966 9.37 68.69 9.37c32.73 0 59.354 26.625 59.354 59.347 0 32.73-26.622 59.355-59.353 59.355" fill="#fabe49"/></g><g><path d="M68.69 137.394C30.814 137.394 0 106.578 0 68.702c0-1.717 1.39-3.112 3.108-3.112 1.718 0 3.11 1.395 3.11 3.11 0 34.45 28.027 62.475 62.472 62.475 34.454 0 62.48-28.026 62.48-62.474 0-34.45-28.026-62.476-62.48-62.476-1.712 0-3.107-1.39-3.107-3.114C65.583 1.4 66.978 0 68.69 0c37.883 0 68.703 30.825 68.703 68.7 0 37.878-30.82 68.694-68.703 68.694" fill="#f40e1b"/></g><g><path d="M61.516 57.212s-3.374 5.32-4.422 13.616c3.61 3.518 5.812 5.573 11.583 8.4 6.757-3.07 10.94-7.953 11.57-8.4-1.244-7.71-4.235-13.045-4.422-13.616-7.778-1.986-14.307 0-14.307 0" fill="#f40e1b"/></g><g><path d="M58.028 50.886c2.11-5.21 4.79-6.316 7.146-8.313-2.774-2.007-5.37-2.316-6.983-2.332-4.625 1.763-8.69 4.653-11.863 8.34.03 1.057.203 2.91.874 5.186 3.58-1.602 6.05-2.232 10.83-2.88" fill="#f40e1b"/></g><g><path d="M68.676 87.515c-3.832 2.52-7.364 3.465-10.366 3.703.93 2.846 1.414 4.076 1.832 4.767 2.7.82 5.564 1.262 8.533 1.262 2.978 0 5.86-.446 8.575-1.277.4-.676.853-1.91 1.782-4.753-3.002-.237-6.536-1.18-10.357-3.702" fill="#f40e1b"/></g><g><path d="M79.343 50.886c4.785.647 7.258 1.278 10.832 2.88.66-2.253.836-4.086.876-5.146-3.23-3.764-7.38-6.703-12.11-8.464-1.61.052-4.06.475-6.736 2.417 2.355 1.997 5.03 3.103 7.14 8.313" fill="#f40e1b"/></g><g><path d="M50.353 75.36c-3.555-3.26-4.835-5.187-6.855-8.544-2.077 1.673-3.387 3.992-3.988 5.218.687 4.715 2.485 9.065 5.12 12.776.888.646 2.307 1.314 4.853 1.695-.402-2.99-.536-6.23.87-11.146" fill="#f40e1b"/></g><g><path d="M94.08 66.817c-2.02 3.356-3.3 5.282-6.857 8.543 1.407 4.916 1.27 8.154.863 11.146 2.164-.334 3.517-.853 4.413-1.403 2.823-3.87 4.716-8.454 5.375-13.43-.667-1.29-1.92-3.34-3.796-4.856" fill="#f40e1b"/></g><g><path d="M68.69 116.873c-26.56 0-48.17-21.61-48.17-48.17 0-26.565 21.61-48.176 48.17-48.176 26.568 0 48.175 21.61 48.175 48.175 0 26.56-21.607 48.17-48.175 48.17" fill="#f40e1b"/></g><g><path d="M68.69 128.073c-1.713 0-3.108-1.4-3.108-3.11 0-1.717 1.394-3.114 3.107-3.114 29.3 0 53.133-23.835 53.133-53.133 0-29.294-23.834-53.124-53.133-53.124-29.294 0-53.13 23.83-53.13 53.124 0 13.62 5.17 26.587 14.555 36.498 1.18 1.246 1.125 3.215-.122 4.397-1.248 1.186-3.213 1.12-4.398-.12C15.115 98.42 9.34 83.936 9.34 68.717 9.34 35.994 35.966 9.37 68.69 9.37c32.73 0 59.354 26.625 59.354 59.347 0 32.73-26.622 59.355-59.353 59.355" fill="#fabe49"/></g><g><path d="M68.69 137.394C30.814 137.394 0 106.578 0 68.702c0-1.717 1.39-3.112 3.108-3.112 1.718 0 3.11 1.395 3.11 3.11 0 34.45 28.027 62.475 62.472 62.475 34.454 0 62.48-28.026 62.48-62.474 0-34.45-28.026-62.476-62.48-62.476-1.712 0-3.107-1.39-3.107-3.114C65.583 1.4 66.978 0 68.69 0c37.883 0 68.703 30.825 68.703 68.7 0 37.878-30.82 68.694-68.703 68.694" fill="#f40e1b"/></g><g><path d="M102.433 68.702c0 18.633-15.104 33.735-33.743 33.735-18.63 0-33.736-15.103-33.736-33.735 0-18.633 15.106-33.74 33.737-33.74 18.64 0 33.745 15.108 33.745 33.74" fill="#fff"/></g><g><path d="M61.516 57.212s-3.374 5.32-4.422 13.616c3.61 3.518 5.812 5.573 11.583 8.4 6.757-3.07 10.94-7.953 11.57-8.4-1.244-7.71-4.235-13.045-4.422-13.616-7.778-1.986-14.307 0-14.307 0" fill="#f40e1b"/></g><g><path d="M58.028 50.886c2.11-5.21 4.79-6.316 7.146-8.313-2.774-2.007-5.37-2.316-6.983-2.332-4.625 1.763-8.69 4.653-11.863 8.34.03 1.057.203 2.91.874 5.186 3.58-1.602 6.05-2.232 10.83-2.88" fill="#f40e1b"/></g><g><path d="M68.676 87.515c-3.832 2.52-7.364 3.465-10.366 3.703.93 2.846 1.414 4.076 1.832 4.767 2.7.82 5.564 1.262 8.533 1.262 2.978 0 5.86-.446 8.575-1.277.4-.676.853-1.91 1.782-4.753-3.002-.237-6.536-1.18-10.357-3.702" fill="#f40e1b"/></g><g><path d="M79.343 50.886c4.785.647 7.258 1.278 10.832 2.88.66-2.253.836-4.086.876-5.146-3.23-3.764-7.38-6.703-12.11-8.464-1.61.052-4.06.475-6.736 2.417 2.355 1.997 5.03 3.103 7.14 8.313" fill="#f40e1b"/></g><g><path d="M50.353 75.36c-3.555-3.26-4.835-5.187-6.855-8.544-2.077 1.673-3.387 3.992-3.988 5.218.687 4.715 2.485 9.065 5.12 12.776.888.646 2.307 1.314 4.853 1.695-.402-2.99-.536-6.23.87-11.146" fill="#f40e1b"/></g><g><path d="M94.08 66.817c-2.02 3.356-3.3 5.282-6.857 8.543 1.407 4.916 1.27 8.154.863 11.146 2.164-.334 3.517-.853 4.413-1.403 2.823-3.87 4.716-8.454 5.375-13.43-.667-1.29-1.92-3.34-3.796-4.856" fill="#f40e1b"/></g></svg>