<?xml version="1.0" standalone="no"?>
<!DOCTYPE svg PUBLIC "-//W3C//DTD SVG 20010904//EN"
 "http://www.w3.org/TR/2001/REC-SVG-20010904/DTD/svg10.dtd">
<svg version="1.0" xmlns="http://www.w3.org/2000/svg"
 width="700.000000pt" height="700.000000pt" viewBox="0 0 700.000000 700.000000"
 preserveAspectRatio="xMidYMid meet">
<metadata>
Created by potrace 1.11, written by Peter Selinger 2001-2013
</metadata>
<g transform="translate(0.000000,700.000000) scale(0.100000,-0.100000)"
fill="#000000" stroke="none">
<path d="M3421 6979 c-58 -40 -76 -73 -76 -137 0 -44 5 -65 24 -91 40 -55 85
-68 266 -75 88 -3 169 -8 180 -10 11 -2 47 -7 80 -10 33 -4 83 -11 110 -16 28
-5 66 -12 85 -15 77 -13 258 -58 349 -87 427 -136 800 -342 1141 -633 74 -63
300 -294 366 -375 254 -309 442 -643 566 -1009 68 -201 123 -439 144 -626 3
-33 8 -69 11 -80 9 -40 11 -512 2 -600 -61 -608 -273 -1153 -632 -1630 -179
-238 -395 -452 -642 -637 -464 -347 -1043 -568 -1610 -616 -169 -14 -595 -7
-690 12 -11 2 -42 7 -69 10 -27 4 -52 9 -55 10 -3 2 -28 7 -54 10 -110 15
-314 70 -492 133 -828 294 -1523 955 -1863 1773 -116 281 -208 649 -227 916
-3 43 -8 97 -10 119 -2 22 -5 81 -6 130 -2 104 -19 150 -71 187 -44 31 -134
33 -174 2 -64 -47 -69 -63 -69 -212 0 -479 118 -978 339 -1435 508 -1051 1501
-1783 2651 -1952 268 -39 718 -42 970 -6 128 19 149 22 265 47 616 131 1202
438 1659 869 93 88 208 207 256 265 21 25 41 47 44 50 16 11 179 231 237 320
165 252 293 515 397 820 78 226 143 538 164 785 10 118 10 504 0 625 -54 654
-314 1312 -723 1835 -204 261 -455 504 -717 693 -467 338 -1028 561 -1587 632
-47 6 -98 13 -115 16 -16 2 -111 7 -210 10 -177 6 -181 6 -214 -17z"/>
<path d="M3447 6524 c-1 -1 -58 -4 -127 -8 -613 -30 -1214 -262 -1720 -665
-125 -99 -355 -330 -458 -458 -539 -677 -763 -1529 -627 -2387 60 -374 207
-769 407 -1089 99 -160 229 -332 346 -458 75 -80 119 -99 190 -80 60 16 97 51
112 106 23 83 17 95 -173 315 -120 139 -304 443 -390 646 -86 204 -151 446
-191 714 -19 122 -25 415 -12 560 56 637 327 1227 768 1672 57 57 119 117 138
133 522 448 1121 676 1782 677 859 2 1662 -400 2174 -1088 306 -410 480 -871
530 -1398 13 -135 7 -422 -11 -541 -3 -16 -7 -48 -10 -70 -42 -313 -173 -687
-340 -970 -75 -127 -190 -288 -290 -405 -63 -74 -264 -268 -345 -333 -352
-283 -812 -493 -1230 -562 -19 -3 -46 -7 -60 -10 -24 -4 -48 -7 -170 -20 -30
-3 -106 -7 -167 -10 -94 -3 -120 -7 -153 -26 -45 -25 -80 -86 -80 -138 0 -43
31 -101 70 -130 29 -21 45 -24 124 -25 92 -1 306 12 329 19 7 2 30 6 52 9 290
36 609 132 900 272 199 95 502 292 649 423 74 65 291 285 347 351 349 411 594
944 673 1460 9 58 19 117 21 132 8 50 19 262 19 368 -1 462 -103 894 -309
1315 -157 320 -323 553 -575 806 -526 528 -1216 842 -1943 885 -121 7 -246 11
-250 8z"/>
<path d="M3397 5954 c-1 -1 -42 -5 -92 -8 -332 -22 -686 -128 -990 -297 -98
-54 -256 -157 -316 -206 -234 -190 -393 -362 -544 -588 -365 -548 -491 -1198
-359 -1855 79 -389 284 -803 550 -1110 313 -361 772 -646 1233 -766 673 -175
1386 -58 1961 322 156 103 258 185 381 307 343 338 573 755 679 1229 11 47 22
110 26 140 3 29 7 59 10 67 7 23 18 210 18 321 -1 248 -38 492 -110 722 -294
928 -1106 1599 -2069 1708 -87 10 -371 21 -378 14z"/>
</g>
</svg>
